<mxfile host="Electron" agent="Mozilla/5.0 (Windows NT 10.0; Win64; x64) AppleWebKit/537.36 (KHTML, like Gecko) draw.io/25.0.2 Chrome/128.0.6613.186 Electron/32.2.5 Safari/537.36" version="25.0.2">
  <diagram name="Page-1" id="jCE36YiFVtOqnVXRjUyJ">
    <mxGraphModel dx="2093" dy="1789" grid="1" gridSize="10" guides="1" tooltips="1" connect="1" arrows="1" fold="1" page="1" pageScale="1" pageWidth="850" pageHeight="1100" math="0" shadow="0">
      <root>
        <mxCell id="0" />
        <mxCell id="1" parent="0" />
        <mxCell id="1DDA4LmgW4OQQLxKGVpP-1" value="Shape" style="swimlane;fontStyle=1;align=center;verticalAlign=top;childLayout=stackLayout;horizontal=1;startSize=26;horizontalStack=0;resizeParent=1;resizeParentMax=0;resizeLast=0;collapsible=1;marginBottom=0;whiteSpace=wrap;html=1;fillColor=#dae8fc;strokeColor=#6c8ebf;" parent="1" vertex="1">
          <mxGeometry x="360" y="143" width="160" height="130" as="geometry" />
        </mxCell>
        <mxCell id="mL8x5HpaYh_XPd6W9Mnt-18" value="GetFrame():RectD" style="text;strokeColor=none;fillColor=none;align=left;verticalAlign=top;spacingLeft=4;spacingRight=4;overflow=hidden;rotatable=0;points=[[0,0.5],[1,0.5]];portConstraint=eastwest;whiteSpace=wrap;html=1;" parent="1DDA4LmgW4OQQLxKGVpP-1" vertex="1">
          <mxGeometry y="26" width="160" height="26" as="geometry" />
        </mxCell>
        <mxCell id="mL8x5HpaYh_XPd6W9Mnt-19" value="SetFrame(frame:RectD)" style="text;strokeColor=none;fillColor=none;align=left;verticalAlign=top;spacingLeft=4;spacingRight=4;overflow=hidden;rotatable=0;points=[[0,0.5],[1,0.5]];portConstraint=eastwest;whiteSpace=wrap;html=1;" parent="1DDA4LmgW4OQQLxKGVpP-1" vertex="1">
          <mxGeometry y="52" width="160" height="26" as="geometry" />
        </mxCell>
        <mxCell id="mL8x5HpaYh_XPd6W9Mnt-20" value="GetLineStyle(): LineStyle&amp;amp;" style="text;strokeColor=none;fillColor=none;align=left;verticalAlign=top;spacingLeft=4;spacingRight=4;overflow=hidden;rotatable=0;points=[[0,0.5],[1,0.5]];portConstraint=eastwest;whiteSpace=wrap;html=1;" parent="1DDA4LmgW4OQQLxKGVpP-1" vertex="1">
          <mxGeometry y="78" width="160" height="26" as="geometry" />
        </mxCell>
        <mxCell id="mL8x5HpaYh_XPd6W9Mnt-21" value="GetFillStyle(): FillStyle&amp;amp;" style="text;strokeColor=none;fillColor=none;align=left;verticalAlign=top;spacingLeft=4;spacingRight=4;overflow=hidden;rotatable=0;points=[[0,0.5],[1,0.5]];portConstraint=eastwest;whiteSpace=wrap;html=1;" parent="1DDA4LmgW4OQQLxKGVpP-1" vertex="1">
          <mxGeometry y="104" width="160" height="26" as="geometry" />
        </mxCell>
        <mxCell id="1DDA4LmgW4OQQLxKGVpP-5" value="&lt;i&gt;IDrawable&lt;/i&gt;" style="swimlane;fontStyle=1;align=center;verticalAlign=top;childLayout=stackLayout;horizontal=1;startSize=26;horizontalStack=0;resizeParent=1;resizeParentMax=0;resizeLast=0;collapsible=1;marginBottom=0;whiteSpace=wrap;html=1;" parent="1" vertex="1">
          <mxGeometry x="360" width="160" height="52" as="geometry" />
        </mxCell>
        <mxCell id="1DDA4LmgW4OQQLxKGVpP-10" value="&lt;i&gt;+Draw(canvas:ICanvas)&lt;/i&gt;" style="text;strokeColor=none;fillColor=none;align=left;verticalAlign=top;spacingLeft=4;spacingRight=4;overflow=hidden;rotatable=0;points=[[0,0.5],[1,0.5]];portConstraint=eastwest;whiteSpace=wrap;html=1;" parent="1DDA4LmgW4OQQLxKGVpP-5" vertex="1">
          <mxGeometry y="26" width="160" height="26" as="geometry" />
        </mxCell>
        <mxCell id="1DDA4LmgW4OQQLxKGVpP-8" value="" style="endArrow=block;dashed=1;endFill=0;endSize=12;html=1;rounded=0;" parent="1" source="1DDA4LmgW4OQQLxKGVpP-1" target="1DDA4LmgW4OQQLxKGVpP-5" edge="1">
          <mxGeometry width="160" relative="1" as="geometry">
            <mxPoint x="490" y="170" as="sourcePoint" />
            <mxPoint x="650" y="170" as="targetPoint" />
          </mxGeometry>
        </mxCell>
        <mxCell id="1DDA4LmgW4OQQLxKGVpP-9" value="&lt;i&gt;ICanvas&lt;/i&gt;" style="swimlane;fontStyle=1;align=center;verticalAlign=top;childLayout=stackLayout;horizontal=1;startSize=26;horizontalStack=0;resizeParent=1;resizeParentMax=0;resizeLast=0;collapsible=1;marginBottom=0;whiteSpace=wrap;html=1;fillColor=#fff2cc;strokeColor=#d6b656;" parent="1" vertex="1">
          <mxGeometry x="620" width="200" height="182" as="geometry" />
        </mxCell>
        <mxCell id="mL8x5HpaYh_XPd6W9Mnt-56" value="BeginFill(color:Color)" style="text;strokeColor=none;fillColor=none;align=left;verticalAlign=top;spacingLeft=4;spacingRight=4;overflow=hidden;rotatable=0;points=[[0,0.5],[1,0.5]];portConstraint=eastwest;whiteSpace=wrap;html=1;fontStyle=2" parent="1DDA4LmgW4OQQLxKGVpP-9" vertex="1">
          <mxGeometry y="26" width="200" height="26" as="geometry" />
        </mxCell>
        <mxCell id="mL8x5HpaYh_XPd6W9Mnt-57" value="EndFlil()" style="text;strokeColor=none;fillColor=none;align=left;verticalAlign=top;spacingLeft=4;spacingRight=4;overflow=hidden;rotatable=0;points=[[0,0.5],[1,0.5]];portConstraint=eastwest;whiteSpace=wrap;html=1;fontStyle=2" parent="1DDA4LmgW4OQQLxKGVpP-9" vertex="1">
          <mxGeometry y="52" width="200" height="26" as="geometry" />
        </mxCell>
        <mxCell id="mL8x5HpaYh_XPd6W9Mnt-58" value="MoveTo(x:double, y:double)" style="text;strokeColor=none;fillColor=none;align=left;verticalAlign=top;spacingLeft=4;spacingRight=4;overflow=hidden;rotatable=0;points=[[0,0.5],[1,0.5]];portConstraint=eastwest;whiteSpace=wrap;html=1;fontStyle=2" parent="1DDA4LmgW4OQQLxKGVpP-9" vertex="1">
          <mxGeometry y="78" width="200" height="26" as="geometry" />
        </mxCell>
        <mxCell id="mL8x5HpaYh_XPd6W9Mnt-59" value="LineTo(x:double, y:double)" style="text;strokeColor=none;fillColor=none;align=left;verticalAlign=top;spacingLeft=4;spacingRight=4;overflow=hidden;rotatable=0;points=[[0,0.5],[1,0.5]];portConstraint=eastwest;whiteSpace=wrap;html=1;fontStyle=2" parent="1DDA4LmgW4OQQLxKGVpP-9" vertex="1">
          <mxGeometry y="104" width="200" height="26" as="geometry" />
        </mxCell>
        <mxCell id="mL8x5HpaYh_XPd6W9Mnt-60" value="DrawEllipse(left, top, width, height)" style="text;strokeColor=none;fillColor=none;align=left;verticalAlign=top;spacingLeft=4;spacingRight=4;overflow=hidden;rotatable=0;points=[[0,0.5],[1,0.5]];portConstraint=eastwest;whiteSpace=wrap;html=1;fontStyle=2" parent="1DDA4LmgW4OQQLxKGVpP-9" vertex="1">
          <mxGeometry y="130" width="200" height="26" as="geometry" />
        </mxCell>
        <mxCell id="mL8x5HpaYh_XPd6W9Mnt-61" value="SetLineColor(color:Color?)" style="text;strokeColor=none;fillColor=none;align=left;verticalAlign=top;spacingLeft=4;spacingRight=4;overflow=hidden;rotatable=0;points=[[0,0.5],[1,0.5]];portConstraint=eastwest;whiteSpace=wrap;html=1;fontStyle=2" parent="1DDA4LmgW4OQQLxKGVpP-9" vertex="1">
          <mxGeometry y="156" width="200" height="26" as="geometry" />
        </mxCell>
        <mxCell id="1DDA4LmgW4OQQLxKGVpP-11" value="Use" style="endArrow=open;endSize=12;dashed=1;html=1;rounded=0;" parent="1" source="1DDA4LmgW4OQQLxKGVpP-5" target="1DDA4LmgW4OQQLxKGVpP-9" edge="1">
          <mxGeometry width="160" relative="1" as="geometry">
            <mxPoint x="610" y="180" as="sourcePoint" />
            <mxPoint x="770" y="180" as="targetPoint" />
          </mxGeometry>
        </mxCell>
        <mxCell id="1DDA4LmgW4OQQLxKGVpP-13" value="Rectangle" style="swimlane;fontStyle=1;align=center;verticalAlign=top;childLayout=stackLayout;horizontal=1;startSize=26;horizontalStack=0;resizeParent=1;resizeParentMax=0;resizeLast=0;collapsible=1;marginBottom=0;whiteSpace=wrap;html=1;fillColor=#dae8fc;strokeColor=#6c8ebf;" parent="1" vertex="1">
          <mxGeometry x="320" y="360" width="140" height="52" as="geometry" />
        </mxCell>
        <mxCell id="mL8x5HpaYh_XPd6W9Mnt-54" value="Draw(canvas:ICanvas)" style="text;strokeColor=none;fillColor=none;align=left;verticalAlign=top;spacingLeft=4;spacingRight=4;overflow=hidden;rotatable=0;points=[[0,0.5],[1,0.5]];portConstraint=eastwest;whiteSpace=wrap;html=1;" parent="1DDA4LmgW4OQQLxKGVpP-13" vertex="1">
          <mxGeometry y="26" width="140" height="26" as="geometry" />
        </mxCell>
        <mxCell id="1DDA4LmgW4OQQLxKGVpP-14" value="Extends" style="endArrow=block;endSize=16;endFill=0;html=1;rounded=0;" parent="1" source="1DDA4LmgW4OQQLxKGVpP-13" target="1DDA4LmgW4OQQLxKGVpP-1" edge="1">
          <mxGeometry width="160" relative="1" as="geometry">
            <mxPoint x="300" y="480" as="sourcePoint" />
            <mxPoint x="460" y="480" as="targetPoint" />
          </mxGeometry>
        </mxCell>
        <mxCell id="1DDA4LmgW4OQQLxKGVpP-17" value="Ellipse" style="swimlane;fontStyle=1;align=center;verticalAlign=top;childLayout=stackLayout;horizontal=1;startSize=26;horizontalStack=0;resizeParent=1;resizeParentMax=0;resizeLast=0;collapsible=1;marginBottom=0;whiteSpace=wrap;html=1;fillColor=#dae8fc;strokeColor=#6c8ebf;" parent="1" vertex="1">
          <mxGeometry x="140" y="360" width="140" height="52" as="geometry" />
        </mxCell>
        <mxCell id="mL8x5HpaYh_XPd6W9Mnt-52" value="Draw(canvas:ICanvas)" style="text;strokeColor=none;fillColor=none;align=left;verticalAlign=top;spacingLeft=4;spacingRight=4;overflow=hidden;rotatable=0;points=[[0,0.5],[1,0.5]];portConstraint=eastwest;whiteSpace=wrap;html=1;" parent="1DDA4LmgW4OQQLxKGVpP-17" vertex="1">
          <mxGeometry y="26" width="140" height="26" as="geometry" />
        </mxCell>
        <mxCell id="1DDA4LmgW4OQQLxKGVpP-18" value="Extends" style="endArrow=block;endSize=16;endFill=0;html=1;rounded=0;" parent="1" source="1DDA4LmgW4OQQLxKGVpP-17" target="1DDA4LmgW4OQQLxKGVpP-1" edge="1">
          <mxGeometry width="160" relative="1" as="geometry">
            <mxPoint x="300" y="480" as="sourcePoint" />
            <mxPoint x="460" y="480" as="targetPoint" />
          </mxGeometry>
        </mxCell>
        <mxCell id="mL8x5HpaYh_XPd6W9Mnt-1" value="Triangle" style="swimlane;fontStyle=1;align=center;verticalAlign=top;childLayout=stackLayout;horizontal=1;startSize=26;horizontalStack=0;resizeParent=1;resizeParentMax=0;resizeLast=0;collapsible=1;marginBottom=0;whiteSpace=wrap;html=1;fillColor=#dae8fc;strokeColor=#6c8ebf;" parent="1" vertex="1">
          <mxGeometry x="480" y="360" width="140" height="52" as="geometry" />
        </mxCell>
        <mxCell id="mL8x5HpaYh_XPd6W9Mnt-55" value="Draw(canvas:ICanvas)" style="text;strokeColor=none;fillColor=none;align=left;verticalAlign=top;spacingLeft=4;spacingRight=4;overflow=hidden;rotatable=0;points=[[0,0.5],[1,0.5]];portConstraint=eastwest;whiteSpace=wrap;html=1;" parent="mL8x5HpaYh_XPd6W9Mnt-1" vertex="1">
          <mxGeometry y="26" width="140" height="26" as="geometry" />
        </mxCell>
        <mxCell id="mL8x5HpaYh_XPd6W9Mnt-2" value="Extends" style="endArrow=block;endSize=16;endFill=0;html=1;rounded=0;" parent="1" source="mL8x5HpaYh_XPd6W9Mnt-1" target="1DDA4LmgW4OQQLxKGVpP-1" edge="1">
          <mxGeometry width="160" relative="1" as="geometry">
            <mxPoint x="300" y="480" as="sourcePoint" />
            <mxPoint x="460" y="480" as="targetPoint" />
          </mxGeometry>
        </mxCell>
        <mxCell id="mL8x5HpaYh_XPd6W9Mnt-3" value="Shape" style="swimlane;fontStyle=1;align=center;verticalAlign=top;childLayout=stackLayout;horizontal=1;startSize=26;horizontalStack=0;resizeParent=1;resizeParentMax=0;resizeLast=0;collapsible=1;marginBottom=0;whiteSpace=wrap;html=1;fillColor=#dae8fc;strokeColor=#6c8ebf;" parent="1" vertex="1">
          <mxGeometry x="365" y="700" width="160" height="52" as="geometry" />
        </mxCell>
        <mxCell id="mL8x5HpaYh_XPd6W9Mnt-4" value="&lt;i&gt;IDrawable&lt;/i&gt;" style="swimlane;fontStyle=1;align=center;verticalAlign=top;childLayout=stackLayout;horizontal=1;startSize=26;horizontalStack=0;resizeParent=1;resizeParentMax=0;resizeLast=0;collapsible=1;marginBottom=0;whiteSpace=wrap;html=1;" parent="1" vertex="1">
          <mxGeometry x="365" y="580" width="160" height="52" as="geometry" />
        </mxCell>
        <mxCell id="mL8x5HpaYh_XPd6W9Mnt-5" value="&lt;i&gt;+Draw(canvas:ICanvas)&lt;/i&gt;" style="text;strokeColor=none;fillColor=none;align=left;verticalAlign=top;spacingLeft=4;spacingRight=4;overflow=hidden;rotatable=0;points=[[0,0.5],[1,0.5]];portConstraint=eastwest;whiteSpace=wrap;html=1;" parent="mL8x5HpaYh_XPd6W9Mnt-4" vertex="1">
          <mxGeometry y="26" width="160" height="26" as="geometry" />
        </mxCell>
        <mxCell id="mL8x5HpaYh_XPd6W9Mnt-6" value="" style="endArrow=block;dashed=1;endFill=0;endSize=12;html=1;rounded=0;" parent="1" source="mL8x5HpaYh_XPd6W9Mnt-3" target="mL8x5HpaYh_XPd6W9Mnt-4" edge="1">
          <mxGeometry width="160" relative="1" as="geometry">
            <mxPoint x="495" y="630" as="sourcePoint" />
            <mxPoint x="655" y="630" as="targetPoint" />
          </mxGeometry>
        </mxCell>
        <mxCell id="mL8x5HpaYh_XPd6W9Mnt-7" value="&lt;i&gt;ICanvas&lt;/i&gt;" style="swimlane;fontStyle=1;align=center;verticalAlign=top;childLayout=stackLayout;horizontal=1;startSize=26;horizontalStack=0;resizeParent=1;resizeParentMax=0;resizeLast=0;collapsible=1;marginBottom=0;whiteSpace=wrap;html=1;" parent="1" vertex="1">
          <mxGeometry x="605" y="580" width="100" height="52" as="geometry" />
        </mxCell>
        <mxCell id="mL8x5HpaYh_XPd6W9Mnt-8" value="Use" style="endArrow=open;endSize=12;dashed=1;html=1;rounded=0;" parent="1" source="mL8x5HpaYh_XPd6W9Mnt-4" target="mL8x5HpaYh_XPd6W9Mnt-7" edge="1">
          <mxGeometry width="160" relative="1" as="geometry">
            <mxPoint x="615" y="640" as="sourcePoint" />
            <mxPoint x="775" y="640" as="targetPoint" />
          </mxGeometry>
        </mxCell>
        <mxCell id="mL8x5HpaYh_XPd6W9Mnt-9" value="GroupShape" style="swimlane;fontStyle=1;align=center;verticalAlign=top;childLayout=stackLayout;horizontal=1;startSize=26;horizontalStack=0;resizeParent=1;resizeParentMax=0;resizeLast=0;collapsible=1;marginBottom=0;whiteSpace=wrap;html=1;fillColor=#dae8fc;strokeColor=#6c8ebf;" parent="1" vertex="1">
          <mxGeometry x="485" y="820" width="120" height="52" as="geometry" />
        </mxCell>
        <mxCell id="mL8x5HpaYh_XPd6W9Mnt-10" value="Rectangle" style="swimlane;fontStyle=1;align=center;verticalAlign=top;childLayout=stackLayout;horizontal=1;startSize=26;horizontalStack=0;resizeParent=1;resizeParentMax=0;resizeLast=0;collapsible=1;marginBottom=0;whiteSpace=wrap;html=1;fillColor=#dae8fc;strokeColor=#6c8ebf;" parent="1" vertex="1">
          <mxGeometry x="345" y="820" width="100" height="52" as="geometry" />
        </mxCell>
        <mxCell id="mL8x5HpaYh_XPd6W9Mnt-11" value="Extends" style="endArrow=block;endSize=16;endFill=0;html=1;rounded=0;" parent="1" source="mL8x5HpaYh_XPd6W9Mnt-10" target="mL8x5HpaYh_XPd6W9Mnt-3" edge="1">
          <mxGeometry width="160" relative="1" as="geometry">
            <mxPoint x="305" y="940" as="sourcePoint" />
            <mxPoint x="465" y="940" as="targetPoint" />
          </mxGeometry>
        </mxCell>
        <mxCell id="mL8x5HpaYh_XPd6W9Mnt-12" value="Extends" style="endArrow=block;endSize=16;endFill=0;html=1;rounded=0;" parent="1" source="mL8x5HpaYh_XPd6W9Mnt-9" target="mL8x5HpaYh_XPd6W9Mnt-3" edge="1">
          <mxGeometry width="160" relative="1" as="geometry">
            <mxPoint x="305" y="940" as="sourcePoint" />
            <mxPoint x="465" y="940" as="targetPoint" />
          </mxGeometry>
        </mxCell>
        <mxCell id="mL8x5HpaYh_XPd6W9Mnt-13" value="" style="endArrow=diamondThin;endFill=1;endSize=24;html=1;rounded=0;edgeStyle=orthogonalEdgeStyle;" parent="1" source="mL8x5HpaYh_XPd6W9Mnt-3" target="mL8x5HpaYh_XPd6W9Mnt-9" edge="1">
          <mxGeometry width="160" relative="1" as="geometry">
            <mxPoint x="705" y="930" as="sourcePoint" />
            <mxPoint x="865" y="930" as="targetPoint" />
            <Array as="points">
              <mxPoint x="555" y="720" />
            </Array>
          </mxGeometry>
        </mxCell>
        <mxCell id="mL8x5HpaYh_XPd6W9Mnt-14" value="Ellipse" style="swimlane;fontStyle=1;align=center;verticalAlign=top;childLayout=stackLayout;horizontal=1;startSize=26;horizontalStack=0;resizeParent=1;resizeParentMax=0;resizeLast=0;collapsible=1;marginBottom=0;whiteSpace=wrap;html=1;fillColor=#dae8fc;strokeColor=#6c8ebf;" parent="1" vertex="1">
          <mxGeometry x="225" y="820" width="100" height="52" as="geometry" />
        </mxCell>
        <mxCell id="mL8x5HpaYh_XPd6W9Mnt-15" value="Extends" style="endArrow=block;endSize=16;endFill=0;html=1;rounded=0;" parent="1" source="mL8x5HpaYh_XPd6W9Mnt-14" target="mL8x5HpaYh_XPd6W9Mnt-3" edge="1">
          <mxGeometry width="160" relative="1" as="geometry">
            <mxPoint x="305" y="940" as="sourcePoint" />
            <mxPoint x="465" y="940" as="targetPoint" />
          </mxGeometry>
        </mxCell>
        <mxCell id="mL8x5HpaYh_XPd6W9Mnt-16" value="Triangle" style="swimlane;fontStyle=1;align=center;verticalAlign=top;childLayout=stackLayout;horizontal=1;startSize=26;horizontalStack=0;resizeParent=1;resizeParentMax=0;resizeLast=0;collapsible=1;marginBottom=0;whiteSpace=wrap;html=1;fillColor=#dae8fc;strokeColor=#6c8ebf;" parent="1" vertex="1">
          <mxGeometry x="75" y="820" width="120" height="52" as="geometry" />
        </mxCell>
        <mxCell id="mL8x5HpaYh_XPd6W9Mnt-17" value="Extends" style="endArrow=block;endSize=16;endFill=0;html=1;rounded=0;" parent="1" source="mL8x5HpaYh_XPd6W9Mnt-16" target="mL8x5HpaYh_XPd6W9Mnt-3" edge="1">
          <mxGeometry width="160" relative="1" as="geometry">
            <mxPoint x="305" y="940" as="sourcePoint" />
            <mxPoint x="465" y="940" as="targetPoint" />
          </mxGeometry>
        </mxCell>
        <mxCell id="mL8x5HpaYh_XPd6W9Mnt-22" value="LineStyle" style="swimlane;fontStyle=1;align=center;verticalAlign=top;childLayout=stackLayout;horizontal=1;startSize=26;horizontalStack=0;resizeParent=1;resizeParentMax=0;resizeLast=0;collapsible=1;marginBottom=0;whiteSpace=wrap;html=1;fillColor=#d5e8d4;strokeColor=#82b366;" parent="1" vertex="1">
          <mxGeometry x="850" y="130" width="160" height="156" as="geometry" />
        </mxCell>
        <mxCell id="mL8x5HpaYh_XPd6W9Mnt-23" value="IsEnabled():bool" style="text;strokeColor=none;fillColor=none;align=left;verticalAlign=top;spacingLeft=4;spacingRight=4;overflow=hidden;rotatable=0;points=[[0,0.5],[1,0.5]];portConstraint=eastwest;whiteSpace=wrap;html=1;" parent="mL8x5HpaYh_XPd6W9Mnt-22" vertex="1">
          <mxGeometry y="26" width="160" height="26" as="geometry" />
        </mxCell>
        <mxCell id="mL8x5HpaYh_XPd6W9Mnt-24" value="Enable(enable:bool)" style="text;strokeColor=none;fillColor=none;align=left;verticalAlign=top;spacingLeft=4;spacingRight=4;overflow=hidden;rotatable=0;points=[[0,0.5],[1,0.5]];portConstraint=eastwest;whiteSpace=wrap;html=1;" parent="mL8x5HpaYh_XPd6W9Mnt-22" vertex="1">
          <mxGeometry y="52" width="160" height="26" as="geometry" />
        </mxCell>
        <mxCell id="mL8x5HpaYh_XPd6W9Mnt-27" value="GetColor(): Color" style="text;strokeColor=none;fillColor=none;align=left;verticalAlign=top;spacingLeft=4;spacingRight=4;overflow=hidden;rotatable=0;points=[[0,0.5],[1,0.5]];portConstraint=eastwest;whiteSpace=wrap;html=1;" parent="mL8x5HpaYh_XPd6W9Mnt-22" vertex="1">
          <mxGeometry y="78" width="160" height="26" as="geometry" />
        </mxCell>
        <mxCell id="mL8x5HpaYh_XPd6W9Mnt-28" value="SetColor(color: Color)" style="text;strokeColor=none;fillColor=none;align=left;verticalAlign=top;spacingLeft=4;spacingRight=4;overflow=hidden;rotatable=0;points=[[0,0.5],[1,0.5]];portConstraint=eastwest;whiteSpace=wrap;html=1;" parent="mL8x5HpaYh_XPd6W9Mnt-22" vertex="1">
          <mxGeometry y="104" width="160" height="26" as="geometry" />
        </mxCell>
        <mxCell id="mL8x5HpaYh_XPd6W9Mnt-29" value="SetWeight(width:double)" style="text;strokeColor=none;fillColor=none;align=left;verticalAlign=top;spacingLeft=4;spacingRight=4;overflow=hidden;rotatable=0;points=[[0,0.5],[1,0.5]];portConstraint=eastwest;whiteSpace=wrap;html=1;" parent="mL8x5HpaYh_XPd6W9Mnt-22" vertex="1">
          <mxGeometry y="130" width="160" height="26" as="geometry" />
        </mxCell>
        <mxCell id="mL8x5HpaYh_XPd6W9Mnt-31" value="FillStyle" style="swimlane;fontStyle=1;align=center;verticalAlign=top;childLayout=stackLayout;horizontal=1;startSize=26;horizontalStack=0;resizeParent=1;resizeParentMax=0;resizeLast=0;collapsible=1;marginBottom=0;whiteSpace=wrap;html=1;fillColor=#d5e8d4;strokeColor=#82b366;" parent="1" vertex="1">
          <mxGeometry x="850" y="300" width="160" height="130" as="geometry" />
        </mxCell>
        <mxCell id="mL8x5HpaYh_XPd6W9Mnt-32" value="IsEnabled():bool" style="text;strokeColor=none;fillColor=none;align=left;verticalAlign=top;spacingLeft=4;spacingRight=4;overflow=hidden;rotatable=0;points=[[0,0.5],[1,0.5]];portConstraint=eastwest;whiteSpace=wrap;html=1;" parent="mL8x5HpaYh_XPd6W9Mnt-31" vertex="1">
          <mxGeometry y="26" width="160" height="26" as="geometry" />
        </mxCell>
        <mxCell id="mL8x5HpaYh_XPd6W9Mnt-33" value="Enable(enable:bool)" style="text;strokeColor=none;fillColor=none;align=left;verticalAlign=top;spacingLeft=4;spacingRight=4;overflow=hidden;rotatable=0;points=[[0,0.5],[1,0.5]];portConstraint=eastwest;whiteSpace=wrap;html=1;" parent="mL8x5HpaYh_XPd6W9Mnt-31" vertex="1">
          <mxGeometry y="52" width="160" height="26" as="geometry" />
        </mxCell>
        <mxCell id="mL8x5HpaYh_XPd6W9Mnt-34" value="GetColor(): Color" style="text;strokeColor=none;fillColor=none;align=left;verticalAlign=top;spacingLeft=4;spacingRight=4;overflow=hidden;rotatable=0;points=[[0,0.5],[1,0.5]];portConstraint=eastwest;whiteSpace=wrap;html=1;" parent="mL8x5HpaYh_XPd6W9Mnt-31" vertex="1">
          <mxGeometry y="78" width="160" height="26" as="geometry" />
        </mxCell>
        <mxCell id="mL8x5HpaYh_XPd6W9Mnt-35" value="SetColor(color: Color)" style="text;strokeColor=none;fillColor=none;align=left;verticalAlign=top;spacingLeft=4;spacingRight=4;overflow=hidden;rotatable=0;points=[[0,0.5],[1,0.5]];portConstraint=eastwest;whiteSpace=wrap;html=1;" parent="mL8x5HpaYh_XPd6W9Mnt-31" vertex="1">
          <mxGeometry y="104" width="160" height="26" as="geometry" />
        </mxCell>
        <mxCell id="mL8x5HpaYh_XPd6W9Mnt-37" value="" style="endArrow=diamondThin;endFill=1;endSize=24;html=1;rounded=0;" parent="1" source="mL8x5HpaYh_XPd6W9Mnt-22" target="1DDA4LmgW4OQQLxKGVpP-1" edge="1">
          <mxGeometry width="160" relative="1" as="geometry">
            <mxPoint x="460" y="290" as="sourcePoint" />
            <mxPoint x="620" y="290" as="targetPoint" />
          </mxGeometry>
        </mxCell>
        <mxCell id="mL8x5HpaYh_XPd6W9Mnt-38" value="" style="endArrow=diamondThin;endFill=1;endSize=24;html=1;rounded=0;" parent="1" source="mL8x5HpaYh_XPd6W9Mnt-31" target="1DDA4LmgW4OQQLxKGVpP-1" edge="1">
          <mxGeometry width="160" relative="1" as="geometry">
            <mxPoint x="460" y="290" as="sourcePoint" />
            <mxPoint x="620" y="290" as="targetPoint" />
          </mxGeometry>
        </mxCell>
        <mxCell id="mL8x5HpaYh_XPd6W9Mnt-39" value="Slide" style="swimlane;fontStyle=1;align=center;verticalAlign=top;childLayout=stackLayout;horizontal=1;startSize=26;horizontalStack=0;resizeParent=1;resizeParentMax=0;resizeLast=0;collapsible=1;marginBottom=0;whiteSpace=wrap;html=1;fillColor=#e1d5e7;strokeColor=#9673a6;" parent="1" vertex="1">
          <mxGeometry width="240" height="260" as="geometry" />
        </mxCell>
        <mxCell id="mL8x5HpaYh_XPd6W9Mnt-40" value="GetShapeCount():size_t" style="text;strokeColor=none;fillColor=none;align=left;verticalAlign=top;spacingLeft=4;spacingRight=4;overflow=hidden;rotatable=0;points=[[0,0.5],[1,0.5]];portConstraint=eastwest;whiteSpace=wrap;html=1;" parent="mL8x5HpaYh_XPd6W9Mnt-39" vertex="1">
          <mxGeometry y="26" width="240" height="26" as="geometry" />
        </mxCell>
        <mxCell id="mL8x5HpaYh_XPd6W9Mnt-44" value="GetShape(index:size_t):Shape" style="text;strokeColor=none;fillColor=none;align=left;verticalAlign=top;spacingLeft=4;spacingRight=4;overflow=hidden;rotatable=0;points=[[0,0.5],[1,0.5]];portConstraint=eastwest;whiteSpace=wrap;html=1;" parent="mL8x5HpaYh_XPd6W9Mnt-39" vertex="1">
          <mxGeometry y="52" width="240" height="26" as="geometry" />
        </mxCell>
        <mxCell id="mL8x5HpaYh_XPd6W9Mnt-79" value="InsertShape(shape:Shape, index:size_t)" style="text;strokeColor=none;fillColor=none;align=left;verticalAlign=top;spacingLeft=4;spacingRight=4;overflow=hidden;rotatable=0;points=[[0,0.5],[1,0.5]];portConstraint=eastwest;whiteSpace=wrap;html=1;" parent="mL8x5HpaYh_XPd6W9Mnt-39" vertex="1">
          <mxGeometry y="78" width="240" height="26" as="geometry" />
        </mxCell>
        <mxCell id="mL8x5HpaYh_XPd6W9Mnt-45" value="RemoveShape(index)" style="text;strokeColor=none;fillColor=none;align=left;verticalAlign=top;spacingLeft=4;spacingRight=4;overflow=hidden;rotatable=0;points=[[0,0.5],[1,0.5]];portConstraint=eastwest;whiteSpace=wrap;html=1;" parent="mL8x5HpaYh_XPd6W9Mnt-39" vertex="1">
          <mxGeometry y="104" width="240" height="26" as="geometry" />
        </mxCell>
        <mxCell id="mL8x5HpaYh_XPd6W9Mnt-46" value="GetWidth():double" style="text;strokeColor=none;fillColor=none;align=left;verticalAlign=top;spacingLeft=4;spacingRight=4;overflow=hidden;rotatable=0;points=[[0,0.5],[1,0.5]];portConstraint=eastwest;whiteSpace=wrap;html=1;" parent="mL8x5HpaYh_XPd6W9Mnt-39" vertex="1">
          <mxGeometry y="130" width="240" height="26" as="geometry" />
        </mxCell>
        <mxCell id="mL8x5HpaYh_XPd6W9Mnt-47" value="GetHeight():double" style="text;strokeColor=none;fillColor=none;align=left;verticalAlign=top;spacingLeft=4;spacingRight=4;overflow=hidden;rotatable=0;points=[[0,0.5],[1,0.5]];portConstraint=eastwest;whiteSpace=wrap;html=1;" parent="mL8x5HpaYh_XPd6W9Mnt-39" vertex="1">
          <mxGeometry y="156" width="240" height="26" as="geometry" />
        </mxCell>
        <mxCell id="mL8x5HpaYh_XPd6W9Mnt-48" value="GetBgColor():Color" style="text;strokeColor=none;fillColor=none;align=left;verticalAlign=top;spacingLeft=4;spacingRight=4;overflow=hidden;rotatable=0;points=[[0,0.5],[1,0.5]];portConstraint=eastwest;whiteSpace=wrap;html=1;" parent="mL8x5HpaYh_XPd6W9Mnt-39" vertex="1">
          <mxGeometry y="182" width="240" height="26" as="geometry" />
        </mxCell>
        <mxCell id="mL8x5HpaYh_XPd6W9Mnt-49" value="SetBgColor(color:Color)" style="text;strokeColor=none;fillColor=none;align=left;verticalAlign=top;spacingLeft=4;spacingRight=4;overflow=hidden;rotatable=0;points=[[0,0.5],[1,0.5]];portConstraint=eastwest;whiteSpace=wrap;html=1;" parent="mL8x5HpaYh_XPd6W9Mnt-39" vertex="1">
          <mxGeometry y="208" width="240" height="26" as="geometry" />
        </mxCell>
        <mxCell id="mL8x5HpaYh_XPd6W9Mnt-51" value="Draw(canvas:ICanvas)" style="text;strokeColor=none;fillColor=none;align=left;verticalAlign=top;spacingLeft=4;spacingRight=4;overflow=hidden;rotatable=0;points=[[0,0.5],[1,0.5]];portConstraint=eastwest;whiteSpace=wrap;html=1;" parent="mL8x5HpaYh_XPd6W9Mnt-39" vertex="1">
          <mxGeometry y="234" width="240" height="26" as="geometry" />
        </mxCell>
        <mxCell id="mL8x5HpaYh_XPd6W9Mnt-50" value="" style="endArrow=block;dashed=1;endFill=0;endSize=12;html=1;rounded=0;" parent="1" source="mL8x5HpaYh_XPd6W9Mnt-39" target="1DDA4LmgW4OQQLxKGVpP-5" edge="1">
          <mxGeometry width="160" relative="1" as="geometry">
            <mxPoint x="490" y="170" as="sourcePoint" />
            <mxPoint x="650" y="170" as="targetPoint" />
          </mxGeometry>
        </mxCell>
        <mxCell id="mL8x5HpaYh_XPd6W9Mnt-62" value="Canvas" style="swimlane;fontStyle=1;align=center;verticalAlign=top;childLayout=stackLayout;horizontal=1;startSize=26;horizontalStack=0;resizeParent=1;resizeParentMax=0;resizeLast=0;collapsible=1;marginBottom=0;whiteSpace=wrap;html=1;fillColor=#fff2cc;strokeColor=#d6b656;" parent="1" vertex="1">
          <mxGeometry x="640" y="360" width="160" height="52" as="geometry" />
        </mxCell>
        <mxCell id="mL8x5HpaYh_XPd6W9Mnt-63" value="..." style="text;strokeColor=none;fillColor=none;align=left;verticalAlign=top;spacingLeft=4;spacingRight=4;overflow=hidden;rotatable=0;points=[[0,0.5],[1,0.5]];portConstraint=eastwest;whiteSpace=wrap;html=1;" parent="mL8x5HpaYh_XPd6W9Mnt-62" vertex="1">
          <mxGeometry y="26" width="160" height="26" as="geometry" />
        </mxCell>
        <mxCell id="mL8x5HpaYh_XPd6W9Mnt-68" value="" style="endArrow=block;dashed=1;endFill=0;endSize=12;html=1;rounded=0;" parent="1" source="mL8x5HpaYh_XPd6W9Mnt-62" target="1DDA4LmgW4OQQLxKGVpP-9" edge="1">
          <mxGeometry width="160" relative="1" as="geometry">
            <mxPoint x="430" y="-100" as="sourcePoint" />
            <mxPoint x="590" y="-100" as="targetPoint" />
          </mxGeometry>
        </mxCell>
        <mxCell id="mL8x5HpaYh_XPd6W9Mnt-69" value="" style="endArrow=diamondThin;endFill=1;endSize=24;html=1;rounded=0;" parent="1" source="1DDA4LmgW4OQQLxKGVpP-1" target="mL8x5HpaYh_XPd6W9Mnt-39" edge="1">
          <mxGeometry width="160" relative="1" as="geometry">
            <mxPoint x="-80" y="320" as="sourcePoint" />
            <mxPoint x="80" y="320" as="targetPoint" />
          </mxGeometry>
        </mxCell>
        <mxCell id="mL8x5HpaYh_XPd6W9Mnt-70" value="RectD" style="swimlane;fontStyle=1;align=center;verticalAlign=top;childLayout=stackLayout;horizontal=1;startSize=26;horizontalStack=0;resizeParent=1;resizeParentMax=0;resizeLast=0;collapsible=1;marginBottom=0;whiteSpace=wrap;html=1;" parent="1" vertex="1">
          <mxGeometry y="300" width="120" height="130" as="geometry" />
        </mxCell>
        <mxCell id="mL8x5HpaYh_XPd6W9Mnt-71" value="left:double" style="text;strokeColor=none;fillColor=none;align=left;verticalAlign=top;spacingLeft=4;spacingRight=4;overflow=hidden;rotatable=0;points=[[0,0.5],[1,0.5]];portConstraint=eastwest;whiteSpace=wrap;html=1;" parent="mL8x5HpaYh_XPd6W9Mnt-70" vertex="1">
          <mxGeometry y="26" width="120" height="26" as="geometry" />
        </mxCell>
        <mxCell id="mL8x5HpaYh_XPd6W9Mnt-75" value="top:double" style="text;strokeColor=none;fillColor=none;align=left;verticalAlign=top;spacingLeft=4;spacingRight=4;overflow=hidden;rotatable=0;points=[[0,0.5],[1,0.5]];portConstraint=eastwest;whiteSpace=wrap;html=1;" parent="mL8x5HpaYh_XPd6W9Mnt-70" vertex="1">
          <mxGeometry y="52" width="120" height="26" as="geometry" />
        </mxCell>
        <mxCell id="mL8x5HpaYh_XPd6W9Mnt-76" value="width:double" style="text;strokeColor=none;fillColor=none;align=left;verticalAlign=top;spacingLeft=4;spacingRight=4;overflow=hidden;rotatable=0;points=[[0,0.5],[1,0.5]];portConstraint=eastwest;whiteSpace=wrap;html=1;" parent="mL8x5HpaYh_XPd6W9Mnt-70" vertex="1">
          <mxGeometry y="78" width="120" height="26" as="geometry" />
        </mxCell>
        <mxCell id="mL8x5HpaYh_XPd6W9Mnt-77" value="height:double" style="text;strokeColor=none;fillColor=none;align=left;verticalAlign=top;spacingLeft=4;spacingRight=4;overflow=hidden;rotatable=0;points=[[0,0.5],[1,0.5]];portConstraint=eastwest;whiteSpace=wrap;html=1;" parent="mL8x5HpaYh_XPd6W9Mnt-70" vertex="1">
          <mxGeometry y="104" width="120" height="26" as="geometry" />
        </mxCell>
        <mxCell id="mL8x5HpaYh_XPd6W9Mnt-78" value="" style="endArrow=diamondThin;endFill=1;endSize=24;html=1;rounded=0;" parent="1" source="mL8x5HpaYh_XPd6W9Mnt-70" target="1DDA4LmgW4OQQLxKGVpP-1" edge="1">
          <mxGeometry width="160" relative="1" as="geometry">
            <mxPoint x="460" y="290" as="sourcePoint" />
            <mxPoint x="620" y="290" as="targetPoint" />
          </mxGeometry>
        </mxCell>
        <mxCell id="mL8x5HpaYh_XPd6W9Mnt-83" value="Command" style="swimlane;fontStyle=1;align=center;verticalAlign=top;childLayout=stackLayout;horizontal=1;startSize=26;horizontalStack=0;resizeParent=1;resizeParentMax=0;resizeLast=0;collapsible=1;marginBottom=0;whiteSpace=wrap;html=1;" parent="1" vertex="1">
          <mxGeometry x="440" y="1050" width="160" height="130" as="geometry" />
        </mxCell>
        <mxCell id="mL8x5HpaYh_XPd6W9Mnt-84" value="&lt;span&gt;Execute()&lt;/span&gt;" style="text;strokeColor=none;fillColor=none;align=left;verticalAlign=top;spacingLeft=4;spacingRight=4;overflow=hidden;rotatable=0;points=[[0,0.5],[1,0.5]];portConstraint=eastwest;whiteSpace=wrap;html=1;fontStyle=0" parent="mL8x5HpaYh_XPd6W9Mnt-83" vertex="1">
          <mxGeometry y="26" width="160" height="26" as="geometry" />
        </mxCell>
        <mxCell id="mL8x5HpaYh_XPd6W9Mnt-85" value="&lt;span&gt;Unexecute()&lt;/span&gt;" style="text;strokeColor=none;fillColor=none;align=left;verticalAlign=top;spacingLeft=4;spacingRight=4;overflow=hidden;rotatable=0;points=[[0,0.5],[1,0.5]];portConstraint=eastwest;whiteSpace=wrap;html=1;fontStyle=0" parent="mL8x5HpaYh_XPd6W9Mnt-83" vertex="1">
          <mxGeometry y="52" width="160" height="26" as="geometry" />
        </mxCell>
        <mxCell id="mL8x5HpaYh_XPd6W9Mnt-87" value="&lt;i&gt;-DoExecute()&lt;/i&gt;" style="text;strokeColor=none;fillColor=none;align=left;verticalAlign=top;spacingLeft=4;spacingRight=4;overflow=hidden;rotatable=0;points=[[0,0.5],[1,0.5]];portConstraint=eastwest;whiteSpace=wrap;html=1;" parent="mL8x5HpaYh_XPd6W9Mnt-83" vertex="1">
          <mxGeometry y="78" width="160" height="26" as="geometry" />
        </mxCell>
        <mxCell id="mL8x5HpaYh_XPd6W9Mnt-86" value="&lt;i&gt;-DoUnexecute()&lt;/i&gt;" style="text;strokeColor=none;fillColor=none;align=left;verticalAlign=top;spacingLeft=4;spacingRight=4;overflow=hidden;rotatable=0;points=[[0,0.5],[1,0.5]];portConstraint=eastwest;whiteSpace=wrap;html=1;" parent="mL8x5HpaYh_XPd6W9Mnt-83" vertex="1">
          <mxGeometry y="104" width="160" height="26" as="geometry" />
        </mxCell>
        <mxCell id="mL8x5HpaYh_XPd6W9Mnt-89" value="&lt;span&gt;ChangeTextCommand&lt;/span&gt;" style="swimlane;fontStyle=1;align=center;verticalAlign=top;childLayout=stackLayout;horizontal=1;startSize=26;horizontalStack=0;resizeParent=1;resizeParentMax=0;resizeLast=0;collapsible=1;marginBottom=0;whiteSpace=wrap;html=1;" parent="1" vertex="1">
          <mxGeometry x="320" y="1280" width="160" height="78" as="geometry" />
        </mxCell>
        <mxCell id="mL8x5HpaYh_XPd6W9Mnt-92" value="&lt;span&gt;-DoExecute()&lt;/span&gt;" style="text;strokeColor=none;fillColor=none;align=left;verticalAlign=top;spacingLeft=4;spacingRight=4;overflow=hidden;rotatable=0;points=[[0,0.5],[1,0.5]];portConstraint=eastwest;whiteSpace=wrap;html=1;fontStyle=0" parent="mL8x5HpaYh_XPd6W9Mnt-89" vertex="1">
          <mxGeometry y="26" width="160" height="26" as="geometry" />
        </mxCell>
        <mxCell id="mL8x5HpaYh_XPd6W9Mnt-93" value="&lt;span&gt;-DoUnexecute()&lt;/span&gt;" style="text;strokeColor=none;fillColor=none;align=left;verticalAlign=top;spacingLeft=4;spacingRight=4;overflow=hidden;rotatable=0;points=[[0,0.5],[1,0.5]];portConstraint=eastwest;whiteSpace=wrap;html=1;fontStyle=0" parent="mL8x5HpaYh_XPd6W9Mnt-89" vertex="1">
          <mxGeometry y="52" width="160" height="26" as="geometry" />
        </mxCell>
        <mxCell id="mL8x5HpaYh_XPd6W9Mnt-94" value="Extends" style="endArrow=block;endSize=16;endFill=0;html=1;rounded=0;" parent="1" source="mL8x5HpaYh_XPd6W9Mnt-89" target="mL8x5HpaYh_XPd6W9Mnt-83" edge="1">
          <mxGeometry width="160" relative="1" as="geometry">
            <mxPoint x="440" y="1240" as="sourcePoint" />
            <mxPoint x="600" y="1240" as="targetPoint" />
          </mxGeometry>
        </mxCell>
        <mxCell id="mL8x5HpaYh_XPd6W9Mnt-95" value="&lt;span&gt;MacroCommand&lt;/span&gt;" style="swimlane;fontStyle=1;align=center;verticalAlign=top;childLayout=stackLayout;horizontal=1;startSize=26;horizontalStack=0;resizeParent=1;resizeParentMax=0;resizeLast=0;collapsible=1;marginBottom=0;whiteSpace=wrap;html=1;" parent="1" vertex="1">
          <mxGeometry x="600" y="1280" width="160" height="112" as="geometry" />
        </mxCell>
        <mxCell id="mL8x5HpaYh_XPd6W9Mnt-98" value="&lt;span&gt;-DoExecute()&lt;/span&gt;" style="text;strokeColor=none;fillColor=none;align=left;verticalAlign=top;spacingLeft=4;spacingRight=4;overflow=hidden;rotatable=0;points=[[0,0.5],[1,0.5]];portConstraint=eastwest;whiteSpace=wrap;html=1;fontStyle=0" parent="mL8x5HpaYh_XPd6W9Mnt-95" vertex="1">
          <mxGeometry y="26" width="160" height="26" as="geometry" />
        </mxCell>
        <mxCell id="mL8x5HpaYh_XPd6W9Mnt-99" value="&lt;span&gt;-DoUnexecute()&lt;/span&gt;" style="text;strokeColor=none;fillColor=none;align=left;verticalAlign=top;spacingLeft=4;spacingRight=4;overflow=hidden;rotatable=0;points=[[0,0.5],[1,0.5]];portConstraint=eastwest;whiteSpace=wrap;html=1;fontStyle=0" parent="mL8x5HpaYh_XPd6W9Mnt-95" vertex="1">
          <mxGeometry y="52" width="160" height="26" as="geometry" />
        </mxCell>
        <mxCell id="mL8x5HpaYh_XPd6W9Mnt-102" value="" style="line;strokeWidth=1;fillColor=none;align=left;verticalAlign=middle;spacingTop=-1;spacingLeft=3;spacingRight=3;rotatable=0;labelPosition=right;points=[];portConstraint=eastwest;strokeColor=inherit;" parent="mL8x5HpaYh_XPd6W9Mnt-95" vertex="1">
          <mxGeometry y="78" width="160" height="8" as="geometry" />
        </mxCell>
        <mxCell id="mL8x5HpaYh_XPd6W9Mnt-103" value="-m_commands:[Command]" style="text;strokeColor=none;fillColor=none;align=left;verticalAlign=top;spacingLeft=4;spacingRight=4;overflow=hidden;rotatable=0;points=[[0,0.5],[1,0.5]];portConstraint=eastwest;whiteSpace=wrap;html=1;" parent="mL8x5HpaYh_XPd6W9Mnt-95" vertex="1">
          <mxGeometry y="86" width="160" height="26" as="geometry" />
        </mxCell>
        <mxCell id="mL8x5HpaYh_XPd6W9Mnt-100" value="" style="endArrow=diamondThin;endFill=1;endSize=24;html=1;rounded=0;edgeStyle=orthogonalEdgeStyle;" parent="1" source="mL8x5HpaYh_XPd6W9Mnt-83" target="mL8x5HpaYh_XPd6W9Mnt-95" edge="1">
          <mxGeometry width="160" relative="1" as="geometry">
            <mxPoint x="580" y="1400" as="sourcePoint" />
            <mxPoint x="740" y="1400" as="targetPoint" />
            <Array as="points">
              <mxPoint x="680" y="1145" />
            </Array>
          </mxGeometry>
        </mxCell>
        <mxCell id="mL8x5HpaYh_XPd6W9Mnt-101" value="Extends" style="endArrow=block;endSize=16;endFill=0;html=1;rounded=0;" parent="1" source="mL8x5HpaYh_XPd6W9Mnt-95" target="mL8x5HpaYh_XPd6W9Mnt-83" edge="1">
          <mxGeometry width="160" relative="1" as="geometry">
            <mxPoint x="440" y="1240" as="sourcePoint" />
            <mxPoint x="600" y="1240" as="targetPoint" />
          </mxGeometry>
        </mxCell>
        <mxCell id="ifzH6vv7MJr9MdxKAfhh-1" value="" style="ellipse;whiteSpace=wrap;html=1;aspect=fixed;fillColor=#f8cecc;strokeColor=#b85450;" parent="1" vertex="1">
          <mxGeometry x="1410" y="-20" width="80" height="80" as="geometry" />
        </mxCell>
        <mxCell id="ifzH6vv7MJr9MdxKAfhh-2" value="" style="ellipse;whiteSpace=wrap;html=1;aspect=fixed;fillColor=#f8cecc;strokeColor=#b85450;" parent="1" vertex="1">
          <mxGeometry x="1340" y="148" width="80" height="80" as="geometry" />
        </mxCell>
        <mxCell id="ifzH6vv7MJr9MdxKAfhh-3" value="" style="ellipse;whiteSpace=wrap;html=1;aspect=fixed;fillColor=#d5e8d4;strokeColor=#82b366;" parent="1" vertex="1">
          <mxGeometry x="1500" y="148" width="80" height="80" as="geometry" />
        </mxCell>
        <mxCell id="ifzH6vv7MJr9MdxKAfhh-4" value="" style="ellipse;whiteSpace=wrap;html=1;aspect=fixed;fillColor=#d5e8d4;strokeColor=#82b366;" parent="1" vertex="1">
          <mxGeometry x="1260" y="268" width="80" height="80" as="geometry" />
        </mxCell>
        <mxCell id="ifzH6vv7MJr9MdxKAfhh-5" value="" style="ellipse;whiteSpace=wrap;html=1;aspect=fixed;fillColor=#d5e8d4;strokeColor=#82b366;" parent="1" vertex="1">
          <mxGeometry x="1400" y="268" width="80" height="80" as="geometry" />
        </mxCell>
        <mxCell id="ifzH6vv7MJr9MdxKAfhh-6" value="" style="endArrow=classic;html=1;rounded=0;" parent="1" source="ifzH6vv7MJr9MdxKAfhh-1" target="ifzH6vv7MJr9MdxKAfhh-2" edge="1">
          <mxGeometry width="50" height="50" relative="1" as="geometry">
            <mxPoint x="740" y="-100" as="sourcePoint" />
            <mxPoint x="790" y="-150" as="targetPoint" />
          </mxGeometry>
        </mxCell>
        <mxCell id="ifzH6vv7MJr9MdxKAfhh-7" value="" style="endArrow=classic;html=1;rounded=0;" parent="1" source="ifzH6vv7MJr9MdxKAfhh-1" target="ifzH6vv7MJr9MdxKAfhh-3" edge="1">
          <mxGeometry width="50" height="50" relative="1" as="geometry">
            <mxPoint x="1445" y="67" as="sourcePoint" />
            <mxPoint x="1405" y="161" as="targetPoint" />
          </mxGeometry>
        </mxCell>
        <mxCell id="ifzH6vv7MJr9MdxKAfhh-8" value="" style="endArrow=classic;html=1;rounded=0;" parent="1" source="ifzH6vv7MJr9MdxKAfhh-2" target="ifzH6vv7MJr9MdxKAfhh-5" edge="1">
          <mxGeometry width="50" height="50" relative="1" as="geometry">
            <mxPoint x="740" y="-100" as="sourcePoint" />
            <mxPoint x="790" y="-150" as="targetPoint" />
          </mxGeometry>
        </mxCell>
        <mxCell id="ifzH6vv7MJr9MdxKAfhh-9" value="" style="endArrow=classic;html=1;rounded=0;" parent="1" source="ifzH6vv7MJr9MdxKAfhh-2" target="ifzH6vv7MJr9MdxKAfhh-4" edge="1">
          <mxGeometry width="50" height="50" relative="1" as="geometry">
            <mxPoint x="990" y="-22" as="sourcePoint" />
            <mxPoint x="1040" y="-72" as="targetPoint" />
          </mxGeometry>
        </mxCell>
        <mxCell id="ifzH6vv7MJr9MdxKAfhh-10" value="" style="endArrow=classic;html=1;rounded=0;edgeStyle=orthogonalEdgeStyle;curved=1;dashed=1;" parent="1" source="ifzH6vv7MJr9MdxKAfhh-4" target="ifzH6vv7MJr9MdxKAfhh-2" edge="1">
          <mxGeometry width="50" height="50" relative="1" as="geometry">
            <mxPoint x="1240" y="238" as="sourcePoint" />
            <mxPoint x="1290" y="188" as="targetPoint" />
            <Array as="points">
              <mxPoint x="1300" y="198" />
            </Array>
          </mxGeometry>
        </mxCell>
        <mxCell id="ifzH6vv7MJr9MdxKAfhh-11" value="" style="endArrow=classic;html=1;rounded=0;edgeStyle=orthogonalEdgeStyle;curved=1;dashed=1;" parent="1" source="ifzH6vv7MJr9MdxKAfhh-2" target="ifzH6vv7MJr9MdxKAfhh-1" edge="1">
          <mxGeometry width="50" height="50" relative="1" as="geometry">
            <mxPoint x="1330.05" y="128" as="sourcePoint" />
            <mxPoint x="1371.05" y="58" as="targetPoint" />
            <Array as="points">
              <mxPoint x="1360" y="48" />
            </Array>
          </mxGeometry>
        </mxCell>
        <mxCell id="ifzH6vv7MJr9MdxKAfhh-12" value="" style="endArrow=classic;html=1;rounded=0;edgeStyle=orthogonalEdgeStyle;curved=1;dashed=1;" parent="1" source="ifzH6vv7MJr9MdxKAfhh-3" target="ifzH6vv7MJr9MdxKAfhh-1" edge="1">
          <mxGeometry width="50" height="50" relative="1" as="geometry">
            <mxPoint x="1370" y="163" as="sourcePoint" />
            <mxPoint x="1431" y="58" as="targetPoint" />
            <Array as="points">
              <mxPoint x="1540" y="38" />
            </Array>
          </mxGeometry>
        </mxCell>
        <mxCell id="ifzH6vv7MJr9MdxKAfhh-13" value="" style="endArrow=classic;html=1;rounded=0;edgeStyle=orthogonalEdgeStyle;curved=1;dashed=1;" parent="1" source="ifzH6vv7MJr9MdxKAfhh-5" target="ifzH6vv7MJr9MdxKAfhh-2" edge="1">
          <mxGeometry width="50" height="50" relative="1" as="geometry">
            <mxPoint x="1477" y="278" as="sourcePoint" />
            <mxPoint x="1423" y="168" as="targetPoint" />
            <Array as="points">
              <mxPoint x="1450" y="198" />
            </Array>
          </mxGeometry>
        </mxCell>
        <mxCell id="ifzH6vv7MJr9MdxKAfhh-14" value="" style="endArrow=classic;html=1;rounded=0;edgeStyle=orthogonalEdgeStyle;curved=1;dashed=1;" parent="1" source="ifzH6vv7MJr9MdxKAfhh-1" target="ifzH6vv7MJr9MdxKAfhh-15" edge="1">
          <mxGeometry width="50" height="50" relative="1" as="geometry">
            <mxPoint x="1544" y="8" as="sourcePoint" />
            <mxPoint x="1490" y="-102" as="targetPoint" />
            <Array as="points">
              <mxPoint x="1460" y="-102" />
            </Array>
          </mxGeometry>
        </mxCell>
        <mxCell id="ifzH6vv7MJr9MdxKAfhh-15" value="null" style="text;html=1;align=center;verticalAlign=middle;whiteSpace=wrap;rounded=0;" parent="1" vertex="1">
          <mxGeometry x="1490" y="-120" width="60" height="30" as="geometry" />
        </mxCell>
        <mxCell id="6d2HYx9BcsOa-inQmmDR-1" value="" style="ellipse;whiteSpace=wrap;html=1;aspect=fixed;" vertex="1" parent="1">
          <mxGeometry x="-1060" y="520" width="80" height="80" as="geometry" />
        </mxCell>
        <mxCell id="6d2HYx9BcsOa-inQmmDR-2" value="" style="ellipse;whiteSpace=wrap;html=1;aspect=fixed;" vertex="1" parent="1">
          <mxGeometry x="-990" y="360" width="80" height="80" as="geometry" />
        </mxCell>
        <mxCell id="6d2HYx9BcsOa-inQmmDR-3" value="" style="ellipse;whiteSpace=wrap;html=1;aspect=fixed;fillColor=#f8cecc;strokeColor=#b85450;" vertex="1" parent="1">
          <mxGeometry x="-920" y="520" width="80" height="80" as="geometry" />
        </mxCell>
        <mxCell id="6d2HYx9BcsOa-inQmmDR-4" value="" style="ellipse;whiteSpace=wrap;html=1;aspect=fixed;fillColor=#f8cecc;strokeColor=#b85450;" vertex="1" parent="1">
          <mxGeometry x="-800" y="520" width="80" height="80" as="geometry" />
        </mxCell>
        <mxCell id="6d2HYx9BcsOa-inQmmDR-5" value="" style="ellipse;whiteSpace=wrap;html=1;aspect=fixed;" vertex="1" parent="1">
          <mxGeometry x="-750" y="360" width="80" height="80" as="geometry" />
        </mxCell>
        <mxCell id="6d2HYx9BcsOa-inQmmDR-6" value="" style="ellipse;whiteSpace=wrap;html=1;aspect=fixed;" vertex="1" parent="1">
          <mxGeometry x="-1200" y="520" width="80" height="80" as="geometry" />
        </mxCell>
        <mxCell id="6d2HYx9BcsOa-inQmmDR-7" value="" style="endArrow=classic;html=1;rounded=0;" edge="1" parent="1" source="6d2HYx9BcsOa-inQmmDR-2" target="6d2HYx9BcsOa-inQmmDR-6">
          <mxGeometry width="50" height="50" relative="1" as="geometry">
            <mxPoint x="-860" y="480" as="sourcePoint" />
            <mxPoint x="-810" y="430" as="targetPoint" />
          </mxGeometry>
        </mxCell>
        <mxCell id="6d2HYx9BcsOa-inQmmDR-8" value="" style="endArrow=classic;html=1;rounded=0;" edge="1" parent="1" source="6d2HYx9BcsOa-inQmmDR-2" target="6d2HYx9BcsOa-inQmmDR-1">
          <mxGeometry width="50" height="50" relative="1" as="geometry">
            <mxPoint x="-860" y="480" as="sourcePoint" />
            <mxPoint x="-810" y="430" as="targetPoint" />
          </mxGeometry>
        </mxCell>
        <mxCell id="6d2HYx9BcsOa-inQmmDR-9" value="" style="endArrow=classic;html=1;rounded=0;" edge="1" parent="1" source="6d2HYx9BcsOa-inQmmDR-2" target="6d2HYx9BcsOa-inQmmDR-3">
          <mxGeometry width="50" height="50" relative="1" as="geometry">
            <mxPoint x="-860" y="480" as="sourcePoint" />
            <mxPoint x="-810" y="430" as="targetPoint" />
          </mxGeometry>
        </mxCell>
        <mxCell id="6d2HYx9BcsOa-inQmmDR-10" value="" style="endArrow=classic;html=1;rounded=0;" edge="1" parent="1" source="6d2HYx9BcsOa-inQmmDR-2" target="6d2HYx9BcsOa-inQmmDR-4">
          <mxGeometry width="50" height="50" relative="1" as="geometry">
            <mxPoint x="-860" y="480" as="sourcePoint" />
            <mxPoint x="-810" y="430" as="targetPoint" />
          </mxGeometry>
        </mxCell>
        <mxCell id="6d2HYx9BcsOa-inQmmDR-11" value="" style="endArrow=classic;html=1;rounded=0;" edge="1" parent="1" source="6d2HYx9BcsOa-inQmmDR-5" target="6d2HYx9BcsOa-inQmmDR-4">
          <mxGeometry width="50" height="50" relative="1" as="geometry">
            <mxPoint x="-860" y="480" as="sourcePoint" />
            <mxPoint x="-810" y="430" as="targetPoint" />
          </mxGeometry>
        </mxCell>
        <mxCell id="6d2HYx9BcsOa-inQmmDR-12" value="" style="endArrow=classic;html=1;rounded=0;" edge="1" parent="1" source="6d2HYx9BcsOa-inQmmDR-5" target="6d2HYx9BcsOa-inQmmDR-3">
          <mxGeometry width="50" height="50" relative="1" as="geometry">
            <mxPoint x="-860" y="480" as="sourcePoint" />
            <mxPoint x="-810" y="430" as="targetPoint" />
          </mxGeometry>
        </mxCell>
        <mxCell id="6d2HYx9BcsOa-inQmmDR-13" value="" style="ellipse;whiteSpace=wrap;html=1;aspect=fixed;" vertex="1" parent="1">
          <mxGeometry x="-680" y="520" width="80" height="80" as="geometry" />
        </mxCell>
        <mxCell id="6d2HYx9BcsOa-inQmmDR-14" value="" style="ellipse;whiteSpace=wrap;html=1;aspect=fixed;" vertex="1" parent="1">
          <mxGeometry x="-560" y="520" width="80" height="80" as="geometry" />
        </mxCell>
        <mxCell id="6d2HYx9BcsOa-inQmmDR-15" value="" style="endArrow=classic;html=1;rounded=0;" edge="1" parent="1" source="6d2HYx9BcsOa-inQmmDR-5" target="6d2HYx9BcsOa-inQmmDR-13">
          <mxGeometry width="50" height="50" relative="1" as="geometry">
            <mxPoint x="-860" y="480" as="sourcePoint" />
            <mxPoint x="-810" y="430" as="targetPoint" />
          </mxGeometry>
        </mxCell>
        <mxCell id="6d2HYx9BcsOa-inQmmDR-16" value="" style="endArrow=classic;html=1;rounded=0;" edge="1" parent="1" source="6d2HYx9BcsOa-inQmmDR-5" target="6d2HYx9BcsOa-inQmmDR-14">
          <mxGeometry width="50" height="50" relative="1" as="geometry">
            <mxPoint x="-860" y="480" as="sourcePoint" />
            <mxPoint x="-810" y="430" as="targetPoint" />
          </mxGeometry>
        </mxCell>
        <mxCell id="6d2HYx9BcsOa-inQmmDR-17" value="" style="ellipse;whiteSpace=wrap;html=1;aspect=fixed;" vertex="1" parent="1">
          <mxGeometry x="-840" y="680" width="80" height="80" as="geometry" />
        </mxCell>
        <mxCell id="6d2HYx9BcsOa-inQmmDR-18" value="" style="ellipse;whiteSpace=wrap;html=1;aspect=fixed;fillColor=#f8cecc;strokeColor=#b85450;" vertex="1" parent="1">
          <mxGeometry x="-1080" y="678" width="80" height="80" as="geometry" />
        </mxCell>
        <mxCell id="6d2HYx9BcsOa-inQmmDR-19" value="" style="ellipse;whiteSpace=wrap;html=1;aspect=fixed;" vertex="1" parent="1">
          <mxGeometry x="-1240" y="680" width="80" height="80" as="geometry" />
        </mxCell>
        <mxCell id="6d2HYx9BcsOa-inQmmDR-20" value="" style="endArrow=classic;html=1;rounded=0;" edge="1" parent="1" source="6d2HYx9BcsOa-inQmmDR-6" target="6d2HYx9BcsOa-inQmmDR-19">
          <mxGeometry width="50" height="50" relative="1" as="geometry">
            <mxPoint x="-860" y="480" as="sourcePoint" />
            <mxPoint x="-810" y="430" as="targetPoint" />
          </mxGeometry>
        </mxCell>
        <mxCell id="6d2HYx9BcsOa-inQmmDR-21" value="" style="endArrow=classic;html=1;rounded=0;" edge="1" parent="1" source="6d2HYx9BcsOa-inQmmDR-6" target="6d2HYx9BcsOa-inQmmDR-18">
          <mxGeometry width="50" height="50" relative="1" as="geometry">
            <mxPoint x="-860" y="480" as="sourcePoint" />
            <mxPoint x="-810" y="430" as="targetPoint" />
          </mxGeometry>
        </mxCell>
        <mxCell id="6d2HYx9BcsOa-inQmmDR-22" value="" style="endArrow=classic;html=1;rounded=0;" edge="1" parent="1" source="6d2HYx9BcsOa-inQmmDR-3" target="6d2HYx9BcsOa-inQmmDR-18">
          <mxGeometry width="50" height="50" relative="1" as="geometry">
            <mxPoint x="-860" y="480" as="sourcePoint" />
            <mxPoint x="-810" y="430" as="targetPoint" />
          </mxGeometry>
        </mxCell>
        <mxCell id="6d2HYx9BcsOa-inQmmDR-23" value="" style="endArrow=classic;html=1;rounded=0;" edge="1" parent="1" source="6d2HYx9BcsOa-inQmmDR-4" target="6d2HYx9BcsOa-inQmmDR-17">
          <mxGeometry width="50" height="50" relative="1" as="geometry">
            <mxPoint x="-860" y="480" as="sourcePoint" />
            <mxPoint x="-810" y="430" as="targetPoint" />
          </mxGeometry>
        </mxCell>
        <mxCell id="6d2HYx9BcsOa-inQmmDR-24" value="" style="endArrow=classic;html=1;rounded=0;" edge="1" target="6d2HYx9BcsOa-inQmmDR-25" parent="1" source="6d2HYx9BcsOa-inQmmDR-4">
          <mxGeometry width="50" height="50" relative="1" as="geometry">
            <mxPoint x="-613" y="600.05" as="sourcePoint" />
            <mxPoint x="-650" y="432.05" as="targetPoint" />
          </mxGeometry>
        </mxCell>
        <mxCell id="6d2HYx9BcsOa-inQmmDR-25" value="" style="ellipse;whiteSpace=wrap;html=1;aspect=fixed;" vertex="1" parent="1">
          <mxGeometry x="-720" y="678" width="80" height="80" as="geometry" />
        </mxCell>
        <mxCell id="6d2HYx9BcsOa-inQmmDR-26" value="Shape" style="swimlane;fontStyle=1;align=center;verticalAlign=top;childLayout=stackLayout;horizontal=1;startSize=26;horizontalStack=0;resizeParent=1;resizeParentMax=0;resizeLast=0;collapsible=1;marginBottom=0;whiteSpace=wrap;html=1;fillColor=#dae8fc;strokeColor=#6c8ebf;" vertex="1" parent="1">
          <mxGeometry x="1570" y="780" width="240" height="156" as="geometry" />
        </mxCell>
        <mxCell id="6d2HYx9BcsOa-inQmmDR-43" value="GetShapeCount():size_t" style="text;strokeColor=none;fillColor=none;align=left;verticalAlign=top;spacingLeft=4;spacingRight=4;overflow=hidden;rotatable=0;points=[[0,0.5],[1,0.5]];portConstraint=eastwest;whiteSpace=wrap;html=1;" vertex="1" parent="6d2HYx9BcsOa-inQmmDR-26">
          <mxGeometry y="26" width="240" height="26" as="geometry" />
        </mxCell>
        <mxCell id="6d2HYx9BcsOa-inQmmDR-44" value="GetShapeAtIndex(index):Shape&amp;amp;" style="text;strokeColor=none;fillColor=none;align=left;verticalAlign=top;spacingLeft=4;spacingRight=4;overflow=hidden;rotatable=0;points=[[0,0.5],[1,0.5]];portConstraint=eastwest;whiteSpace=wrap;html=1;" vertex="1" parent="6d2HYx9BcsOa-inQmmDR-26">
          <mxGeometry y="52" width="240" height="26" as="geometry" />
        </mxCell>
        <mxCell id="6d2HYx9BcsOa-inQmmDR-45" value="InsertShape(shape:Shape, index)" style="text;strokeColor=none;fillColor=none;align=left;verticalAlign=top;spacingLeft=4;spacingRight=4;overflow=hidden;rotatable=0;points=[[0,0.5],[1,0.5]];portConstraint=eastwest;whiteSpace=wrap;html=1;" vertex="1" parent="6d2HYx9BcsOa-inQmmDR-26">
          <mxGeometry y="78" width="240" height="26" as="geometry" />
        </mxCell>
        <mxCell id="6d2HYx9BcsOa-inQmmDR-46" value="RemoveShapeAtIndex(index:size_t)" style="text;strokeColor=none;fillColor=none;align=left;verticalAlign=top;spacingLeft=4;spacingRight=4;overflow=hidden;rotatable=0;points=[[0,0.5],[1,0.5]];portConstraint=eastwest;whiteSpace=wrap;html=1;" vertex="1" parent="6d2HYx9BcsOa-inQmmDR-26">
          <mxGeometry y="104" width="240" height="26" as="geometry" />
        </mxCell>
        <mxCell id="6d2HYx9BcsOa-inQmmDR-47" value="..." style="text;strokeColor=none;fillColor=none;align=left;verticalAlign=top;spacingLeft=4;spacingRight=4;overflow=hidden;rotatable=0;points=[[0,0.5],[1,0.5]];portConstraint=eastwest;whiteSpace=wrap;html=1;" vertex="1" parent="6d2HYx9BcsOa-inQmmDR-26">
          <mxGeometry y="130" width="240" height="26" as="geometry" />
        </mxCell>
        <mxCell id="6d2HYx9BcsOa-inQmmDR-32" value="GroupShape" style="swimlane;fontStyle=1;align=center;verticalAlign=top;childLayout=stackLayout;horizontal=1;startSize=26;horizontalStack=0;resizeParent=1;resizeParentMax=0;resizeLast=0;collapsible=1;marginBottom=0;whiteSpace=wrap;html=1;fillColor=#dae8fc;strokeColor=#6c8ebf;" vertex="1" parent="1">
          <mxGeometry x="1890" y="1060" width="240" height="156" as="geometry" />
        </mxCell>
        <mxCell id="6d2HYx9BcsOa-inQmmDR-48" value="GetShapeCount():size_t" style="text;strokeColor=none;fillColor=none;align=left;verticalAlign=top;spacingLeft=4;spacingRight=4;overflow=hidden;rotatable=0;points=[[0,0.5],[1,0.5]];portConstraint=eastwest;whiteSpace=wrap;html=1;" vertex="1" parent="6d2HYx9BcsOa-inQmmDR-32">
          <mxGeometry y="26" width="240" height="26" as="geometry" />
        </mxCell>
        <mxCell id="6d2HYx9BcsOa-inQmmDR-51" value="RemoveShapeAtIndex(index:size_t)" style="text;strokeColor=none;fillColor=none;align=left;verticalAlign=top;spacingLeft=4;spacingRight=4;overflow=hidden;rotatable=0;points=[[0,0.5],[1,0.5]];portConstraint=eastwest;whiteSpace=wrap;html=1;" vertex="1" parent="6d2HYx9BcsOa-inQmmDR-32">
          <mxGeometry y="52" width="240" height="26" as="geometry" />
        </mxCell>
        <mxCell id="6d2HYx9BcsOa-inQmmDR-50" value="InsertShape(shape:Shape, index)" style="text;strokeColor=none;fillColor=none;align=left;verticalAlign=top;spacingLeft=4;spacingRight=4;overflow=hidden;rotatable=0;points=[[0,0.5],[1,0.5]];portConstraint=eastwest;whiteSpace=wrap;html=1;" vertex="1" parent="6d2HYx9BcsOa-inQmmDR-32">
          <mxGeometry y="78" width="240" height="26" as="geometry" />
        </mxCell>
        <mxCell id="6d2HYx9BcsOa-inQmmDR-49" value="GetShapeAtIndex(index):Shape&amp;amp;" style="text;strokeColor=none;fillColor=none;align=left;verticalAlign=top;spacingLeft=4;spacingRight=4;overflow=hidden;rotatable=0;points=[[0,0.5],[1,0.5]];portConstraint=eastwest;whiteSpace=wrap;html=1;" vertex="1" parent="6d2HYx9BcsOa-inQmmDR-32">
          <mxGeometry y="104" width="240" height="26" as="geometry" />
        </mxCell>
        <mxCell id="6d2HYx9BcsOa-inQmmDR-60" value="..." style="text;strokeColor=none;fillColor=none;align=left;verticalAlign=top;spacingLeft=4;spacingRight=4;overflow=hidden;rotatable=0;points=[[0,0.5],[1,0.5]];portConstraint=eastwest;whiteSpace=wrap;html=1;" vertex="1" parent="6d2HYx9BcsOa-inQmmDR-32">
          <mxGeometry y="130" width="240" height="26" as="geometry" />
        </mxCell>
        <mxCell id="6d2HYx9BcsOa-inQmmDR-33" value="Rectangle" style="swimlane;fontStyle=1;align=center;verticalAlign=top;childLayout=stackLayout;horizontal=1;startSize=26;horizontalStack=0;resizeParent=1;resizeParentMax=0;resizeLast=0;collapsible=1;marginBottom=0;whiteSpace=wrap;html=1;fillColor=#dae8fc;strokeColor=#6c8ebf;" vertex="1" parent="1">
          <mxGeometry x="1750" y="1060" width="100" height="52" as="geometry" />
        </mxCell>
        <mxCell id="6d2HYx9BcsOa-inQmmDR-34" value="Extends" style="endArrow=block;endSize=16;endFill=0;html=1;rounded=0;" edge="1" source="6d2HYx9BcsOa-inQmmDR-33" target="6d2HYx9BcsOa-inQmmDR-26" parent="1">
          <mxGeometry width="160" relative="1" as="geometry">
            <mxPoint x="1710" y="1180" as="sourcePoint" />
            <mxPoint x="1870" y="1180" as="targetPoint" />
          </mxGeometry>
        </mxCell>
        <mxCell id="6d2HYx9BcsOa-inQmmDR-35" value="Extends" style="endArrow=block;endSize=16;endFill=0;html=1;rounded=0;" edge="1" source="6d2HYx9BcsOa-inQmmDR-32" target="6d2HYx9BcsOa-inQmmDR-26" parent="1">
          <mxGeometry width="160" relative="1" as="geometry">
            <mxPoint x="1710" y="1180" as="sourcePoint" />
            <mxPoint x="1870" y="1180" as="targetPoint" />
          </mxGeometry>
        </mxCell>
        <mxCell id="6d2HYx9BcsOa-inQmmDR-36" value="" style="endArrow=diamondThin;endFill=1;endSize=24;html=1;rounded=0;edgeStyle=orthogonalEdgeStyle;" edge="1" source="6d2HYx9BcsOa-inQmmDR-26" target="6d2HYx9BcsOa-inQmmDR-32" parent="1">
          <mxGeometry width="160" relative="1" as="geometry">
            <mxPoint x="2110" y="1170" as="sourcePoint" />
            <mxPoint x="2270" y="1170" as="targetPoint" />
            <Array as="points">
              <mxPoint x="1960" y="860" />
            </Array>
          </mxGeometry>
        </mxCell>
        <mxCell id="6d2HYx9BcsOa-inQmmDR-37" value="Ellipse" style="swimlane;fontStyle=1;align=center;verticalAlign=top;childLayout=stackLayout;horizontal=1;startSize=26;horizontalStack=0;resizeParent=1;resizeParentMax=0;resizeLast=0;collapsible=1;marginBottom=0;whiteSpace=wrap;html=1;fillColor=#dae8fc;strokeColor=#6c8ebf;" vertex="1" parent="1">
          <mxGeometry x="1630" y="1060" width="100" height="52" as="geometry" />
        </mxCell>
        <mxCell id="6d2HYx9BcsOa-inQmmDR-38" value="Extends" style="endArrow=block;endSize=16;endFill=0;html=1;rounded=0;" edge="1" source="6d2HYx9BcsOa-inQmmDR-37" target="6d2HYx9BcsOa-inQmmDR-26" parent="1">
          <mxGeometry width="160" relative="1" as="geometry">
            <mxPoint x="1710" y="1180" as="sourcePoint" />
            <mxPoint x="1870" y="1180" as="targetPoint" />
          </mxGeometry>
        </mxCell>
        <mxCell id="6d2HYx9BcsOa-inQmmDR-39" value="Triangle" style="swimlane;fontStyle=1;align=center;verticalAlign=top;childLayout=stackLayout;horizontal=1;startSize=26;horizontalStack=0;resizeParent=1;resizeParentMax=0;resizeLast=0;collapsible=1;marginBottom=0;whiteSpace=wrap;html=1;fillColor=#dae8fc;strokeColor=#6c8ebf;" vertex="1" parent="1">
          <mxGeometry x="1480" y="1060" width="120" height="52" as="geometry" />
        </mxCell>
        <mxCell id="6d2HYx9BcsOa-inQmmDR-40" value="Extends" style="endArrow=block;endSize=16;endFill=0;html=1;rounded=0;" edge="1" source="6d2HYx9BcsOa-inQmmDR-39" target="6d2HYx9BcsOa-inQmmDR-26" parent="1">
          <mxGeometry width="160" relative="1" as="geometry">
            <mxPoint x="1710" y="1180" as="sourcePoint" />
            <mxPoint x="1870" y="1180" as="targetPoint" />
          </mxGeometry>
        </mxCell>
        <mxCell id="6d2HYx9BcsOa-inQmmDR-52" value="return 0;" style="shape=note;whiteSpace=wrap;html=1;backgroundOutline=1;darkOpacity=0.05;fillColor=#ffff88;strokeColor=#36393d;fontFamily=Consolas;size=15;align=left;spacingLeft=2;" vertex="1" parent="1">
          <mxGeometry x="1390" y="730" width="110" height="40" as="geometry" />
        </mxCell>
        <mxCell id="6d2HYx9BcsOa-inQmmDR-53" style="edgeStyle=orthogonalEdgeStyle;rounded=0;orthogonalLoop=1;jettySize=auto;html=1;entryX=0;entryY=0;entryDx=110;entryDy=15;entryPerimeter=0;" edge="1" parent="1" source="6d2HYx9BcsOa-inQmmDR-43" target="6d2HYx9BcsOa-inQmmDR-52">
          <mxGeometry relative="1" as="geometry">
            <Array as="points">
              <mxPoint x="1550" y="819" />
              <mxPoint x="1550" y="745" />
            </Array>
          </mxGeometry>
        </mxCell>
        <mxCell id="6d2HYx9BcsOa-inQmmDR-54" value="throw logic_error(&quot;Not implemented&quot;);" style="shape=note;whiteSpace=wrap;html=1;backgroundOutline=1;darkOpacity=0.05;fillColor=#ffff88;strokeColor=#36393d;fontFamily=Consolas;size=15;align=left;spacingLeft=2;" vertex="1" parent="1">
          <mxGeometry x="1220" y="800" width="270" height="40" as="geometry" />
        </mxCell>
        <mxCell id="6d2HYx9BcsOa-inQmmDR-55" value="throw logic_error(&quot;Not implemented&quot;);" style="shape=note;whiteSpace=wrap;html=1;backgroundOutline=1;darkOpacity=0.05;fillColor=#ffff88;strokeColor=#36393d;fontFamily=Consolas;size=15;align=left;spacingLeft=2;" vertex="1" parent="1">
          <mxGeometry x="1220" y="858" width="270" height="40" as="geometry" />
        </mxCell>
        <mxCell id="6d2HYx9BcsOa-inQmmDR-56" value="throw logic_error(&quot;Not implemented&quot;);" style="shape=note;whiteSpace=wrap;html=1;backgroundOutline=1;darkOpacity=0.05;fillColor=#ffff88;strokeColor=#36393d;fontFamily=Consolas;size=15;align=left;spacingLeft=2;" vertex="1" parent="1">
          <mxGeometry x="1230" y="930" width="270" height="40" as="geometry" />
        </mxCell>
        <mxCell id="6d2HYx9BcsOa-inQmmDR-57" style="edgeStyle=orthogonalEdgeStyle;rounded=0;orthogonalLoop=1;jettySize=auto;html=1;" edge="1" parent="1" source="6d2HYx9BcsOa-inQmmDR-44" target="6d2HYx9BcsOa-inQmmDR-54">
          <mxGeometry relative="1" as="geometry" />
        </mxCell>
        <mxCell id="6d2HYx9BcsOa-inQmmDR-58" style="edgeStyle=orthogonalEdgeStyle;rounded=0;orthogonalLoop=1;jettySize=auto;html=1;" edge="1" parent="1" source="6d2HYx9BcsOa-inQmmDR-45" target="6d2HYx9BcsOa-inQmmDR-55">
          <mxGeometry relative="1" as="geometry" />
        </mxCell>
        <mxCell id="6d2HYx9BcsOa-inQmmDR-59" style="edgeStyle=orthogonalEdgeStyle;rounded=0;orthogonalLoop=1;jettySize=auto;html=1;" edge="1" parent="1" source="6d2HYx9BcsOa-inQmmDR-46" target="6d2HYx9BcsOa-inQmmDR-56">
          <mxGeometry relative="1" as="geometry">
            <Array as="points">
              <mxPoint x="1540" y="900" />
              <mxPoint x="1540" y="950" />
            </Array>
          </mxGeometry>
        </mxCell>
        <mxCell id="6d2HYx9BcsOa-inQmmDR-61" value="Shape" style="swimlane;fontStyle=1;align=center;verticalAlign=top;childLayout=stackLayout;horizontal=1;startSize=26;horizontalStack=0;resizeParent=1;resizeParentMax=0;resizeLast=0;collapsible=1;marginBottom=0;whiteSpace=wrap;html=1;fillColor=#dae8fc;strokeColor=#6c8ebf;" vertex="1" parent="1">
          <mxGeometry x="1575" y="1530" width="240" height="78" as="geometry" />
        </mxCell>
        <mxCell id="6d2HYx9BcsOa-inQmmDR-62" value="GetGroup():IGroup*" style="text;strokeColor=none;fillColor=none;align=left;verticalAlign=top;spacingLeft=4;spacingRight=4;overflow=hidden;rotatable=0;points=[[0,0.5],[1,0.5]];portConstraint=eastwest;whiteSpace=wrap;html=1;" vertex="1" parent="6d2HYx9BcsOa-inQmmDR-61">
          <mxGeometry y="26" width="240" height="26" as="geometry" />
        </mxCell>
        <mxCell id="6d2HYx9BcsOa-inQmmDR-66" value="..." style="text;strokeColor=none;fillColor=none;align=left;verticalAlign=top;spacingLeft=4;spacingRight=4;overflow=hidden;rotatable=0;points=[[0,0.5],[1,0.5]];portConstraint=eastwest;whiteSpace=wrap;html=1;" vertex="1" parent="6d2HYx9BcsOa-inQmmDR-61">
          <mxGeometry y="52" width="240" height="26" as="geometry" />
        </mxCell>
        <mxCell id="6d2HYx9BcsOa-inQmmDR-67" value="GroupShape" style="swimlane;fontStyle=1;align=center;verticalAlign=top;childLayout=stackLayout;horizontal=1;startSize=26;horizontalStack=0;resizeParent=1;resizeParentMax=0;resizeLast=0;collapsible=1;marginBottom=0;whiteSpace=wrap;html=1;fillColor=#dae8fc;strokeColor=#6c8ebf;" vertex="1" parent="1">
          <mxGeometry x="1960" y="1720" width="240" height="182" as="geometry" />
        </mxCell>
        <mxCell id="6d2HYx9BcsOa-inQmmDR-105" value="GetGroup():IGroup*" style="text;strokeColor=none;fillColor=none;align=left;verticalAlign=top;spacingLeft=4;spacingRight=4;overflow=hidden;rotatable=0;points=[[0,0.5],[1,0.5]];portConstraint=eastwest;whiteSpace=wrap;html=1;fontStyle=0" vertex="1" parent="6d2HYx9BcsOa-inQmmDR-67">
          <mxGeometry y="26" width="240" height="26" as="geometry" />
        </mxCell>
        <mxCell id="6d2HYx9BcsOa-inQmmDR-68" value="GetShapeCount():size_t" style="text;strokeColor=none;fillColor=none;align=left;verticalAlign=top;spacingLeft=4;spacingRight=4;overflow=hidden;rotatable=0;points=[[0,0.5],[1,0.5]];portConstraint=eastwest;whiteSpace=wrap;html=1;" vertex="1" parent="6d2HYx9BcsOa-inQmmDR-67">
          <mxGeometry y="52" width="240" height="26" as="geometry" />
        </mxCell>
        <mxCell id="6d2HYx9BcsOa-inQmmDR-69" value="RemoveShapeAtIndex(index:size_t)" style="text;strokeColor=none;fillColor=none;align=left;verticalAlign=top;spacingLeft=4;spacingRight=4;overflow=hidden;rotatable=0;points=[[0,0.5],[1,0.5]];portConstraint=eastwest;whiteSpace=wrap;html=1;" vertex="1" parent="6d2HYx9BcsOa-inQmmDR-67">
          <mxGeometry y="78" width="240" height="26" as="geometry" />
        </mxCell>
        <mxCell id="6d2HYx9BcsOa-inQmmDR-70" value="InsertShape(shape:Shape, index)" style="text;strokeColor=none;fillColor=none;align=left;verticalAlign=top;spacingLeft=4;spacingRight=4;overflow=hidden;rotatable=0;points=[[0,0.5],[1,0.5]];portConstraint=eastwest;whiteSpace=wrap;html=1;" vertex="1" parent="6d2HYx9BcsOa-inQmmDR-67">
          <mxGeometry y="104" width="240" height="26" as="geometry" />
        </mxCell>
        <mxCell id="6d2HYx9BcsOa-inQmmDR-71" value="GetShapeAtIndex(index):Shape&amp;amp;" style="text;strokeColor=none;fillColor=none;align=left;verticalAlign=top;spacingLeft=4;spacingRight=4;overflow=hidden;rotatable=0;points=[[0,0.5],[1,0.5]];portConstraint=eastwest;whiteSpace=wrap;html=1;" vertex="1" parent="6d2HYx9BcsOa-inQmmDR-67">
          <mxGeometry y="130" width="240" height="26" as="geometry" />
        </mxCell>
        <mxCell id="6d2HYx9BcsOa-inQmmDR-72" value="..." style="text;strokeColor=none;fillColor=none;align=left;verticalAlign=top;spacingLeft=4;spacingRight=4;overflow=hidden;rotatable=0;points=[[0,0.5],[1,0.5]];portConstraint=eastwest;whiteSpace=wrap;html=1;" vertex="1" parent="6d2HYx9BcsOa-inQmmDR-67">
          <mxGeometry y="156" width="240" height="26" as="geometry" />
        </mxCell>
        <mxCell id="6d2HYx9BcsOa-inQmmDR-73" value="Rectangle" style="swimlane;fontStyle=1;align=center;verticalAlign=top;childLayout=stackLayout;horizontal=1;startSize=26;horizontalStack=0;resizeParent=1;resizeParentMax=0;resizeLast=0;collapsible=1;marginBottom=0;whiteSpace=wrap;html=1;fillColor=#dae8fc;strokeColor=#6c8ebf;" vertex="1" parent="1">
          <mxGeometry x="1765" y="1800" width="100" height="52" as="geometry" />
        </mxCell>
        <mxCell id="6d2HYx9BcsOa-inQmmDR-74" value="" style="endArrow=block;endSize=16;endFill=0;html=1;rounded=0;" edge="1" source="6d2HYx9BcsOa-inQmmDR-73" target="6d2HYx9BcsOa-inQmmDR-61" parent="1">
          <mxGeometry width="160" relative="1" as="geometry">
            <mxPoint x="1725" y="1920" as="sourcePoint" />
            <mxPoint x="1885" y="1920" as="targetPoint" />
          </mxGeometry>
        </mxCell>
        <mxCell id="6d2HYx9BcsOa-inQmmDR-75" value="" style="endArrow=block;endSize=16;endFill=0;html=1;rounded=0;" edge="1" source="6d2HYx9BcsOa-inQmmDR-67" target="6d2HYx9BcsOa-inQmmDR-61" parent="1">
          <mxGeometry width="160" relative="1" as="geometry">
            <mxPoint x="1725" y="1920" as="sourcePoint" />
            <mxPoint x="1885" y="1920" as="targetPoint" />
          </mxGeometry>
        </mxCell>
        <mxCell id="6d2HYx9BcsOa-inQmmDR-76" value="" style="endArrow=diamondThin;endFill=1;endSize=24;html=1;rounded=0;edgeStyle=orthogonalEdgeStyle;" edge="1" source="6d2HYx9BcsOa-inQmmDR-95" target="6d2HYx9BcsOa-inQmmDR-67" parent="1">
          <mxGeometry width="160" relative="1" as="geometry">
            <mxPoint x="2125" y="1910" as="sourcePoint" />
            <mxPoint x="2285" y="1910" as="targetPoint" />
            <Array as="points">
              <mxPoint x="1900" y="1800" />
            </Array>
          </mxGeometry>
        </mxCell>
        <mxCell id="6d2HYx9BcsOa-inQmmDR-77" value="Ellipse" style="swimlane;fontStyle=1;align=center;verticalAlign=top;childLayout=stackLayout;horizontal=1;startSize=26;horizontalStack=0;resizeParent=1;resizeParentMax=0;resizeLast=0;collapsible=1;marginBottom=0;whiteSpace=wrap;html=1;fillColor=#dae8fc;strokeColor=#6c8ebf;" vertex="1" parent="1">
          <mxGeometry x="1645" y="1800" width="100" height="52" as="geometry" />
        </mxCell>
        <mxCell id="6d2HYx9BcsOa-inQmmDR-78" value="" style="endArrow=block;endSize=16;endFill=0;html=1;rounded=0;" edge="1" source="6d2HYx9BcsOa-inQmmDR-77" target="6d2HYx9BcsOa-inQmmDR-61" parent="1">
          <mxGeometry width="160" relative="1" as="geometry">
            <mxPoint x="1725" y="1920" as="sourcePoint" />
            <mxPoint x="1885" y="1920" as="targetPoint" />
          </mxGeometry>
        </mxCell>
        <mxCell id="6d2HYx9BcsOa-inQmmDR-79" value="Triangle" style="swimlane;fontStyle=1;align=center;verticalAlign=top;childLayout=stackLayout;horizontal=1;startSize=26;horizontalStack=0;resizeParent=1;resizeParentMax=0;resizeLast=0;collapsible=1;marginBottom=0;whiteSpace=wrap;html=1;fillColor=#dae8fc;strokeColor=#6c8ebf;" vertex="1" parent="1">
          <mxGeometry x="1495" y="1800" width="120" height="52" as="geometry" />
        </mxCell>
        <mxCell id="6d2HYx9BcsOa-inQmmDR-80" value="" style="endArrow=block;endSize=16;endFill=0;html=1;rounded=0;" edge="1" source="6d2HYx9BcsOa-inQmmDR-79" target="6d2HYx9BcsOa-inQmmDR-61" parent="1">
          <mxGeometry width="160" relative="1" as="geometry">
            <mxPoint x="1725" y="1920" as="sourcePoint" />
            <mxPoint x="1885" y="1920" as="targetPoint" />
          </mxGeometry>
        </mxCell>
        <mxCell id="6d2HYx9BcsOa-inQmmDR-81" value="return nullptr;" style="shape=note;whiteSpace=wrap;html=1;backgroundOutline=1;darkOpacity=0.05;fillColor=#ffff88;strokeColor=#36393d;fontFamily=Consolas;size=15;align=left;spacingLeft=2;" vertex="1" parent="1">
          <mxGeometry x="1420" y="1533.5" width="110" height="51" as="geometry" />
        </mxCell>
        <mxCell id="6d2HYx9BcsOa-inQmmDR-82" style="edgeStyle=orthogonalEdgeStyle;rounded=0;orthogonalLoop=1;jettySize=auto;html=1;" edge="1" source="6d2HYx9BcsOa-inQmmDR-62" target="6d2HYx9BcsOa-inQmmDR-81" parent="1">
          <mxGeometry relative="1" as="geometry">
            <Array as="points" />
          </mxGeometry>
        </mxCell>
        <mxCell id="6d2HYx9BcsOa-inQmmDR-89" value="IGroup" style="swimlane;fontStyle=3;align=center;verticalAlign=top;childLayout=stackLayout;horizontal=1;startSize=26;horizontalStack=0;resizeParent=1;resizeParentMax=0;resizeLast=0;collapsible=1;marginBottom=0;whiteSpace=wrap;html=1;fillColor=#dae8fc;strokeColor=#6c8ebf;" vertex="1" parent="1">
          <mxGeometry x="1960" y="1520" width="240" height="130" as="geometry" />
        </mxCell>
        <mxCell id="6d2HYx9BcsOa-inQmmDR-90" value="GetShapeCount():size_t" style="text;strokeColor=none;fillColor=none;align=left;verticalAlign=top;spacingLeft=4;spacingRight=4;overflow=hidden;rotatable=0;points=[[0,0.5],[1,0.5]];portConstraint=eastwest;whiteSpace=wrap;html=1;fontStyle=2" vertex="1" parent="6d2HYx9BcsOa-inQmmDR-89">
          <mxGeometry y="26" width="240" height="26" as="geometry" />
        </mxCell>
        <mxCell id="6d2HYx9BcsOa-inQmmDR-91" value="GetShapeAtIndex(index):Shape&amp;amp;" style="text;strokeColor=none;fillColor=none;align=left;verticalAlign=top;spacingLeft=4;spacingRight=4;overflow=hidden;rotatable=0;points=[[0,0.5],[1,0.5]];portConstraint=eastwest;whiteSpace=wrap;html=1;fontStyle=2" vertex="1" parent="6d2HYx9BcsOa-inQmmDR-89">
          <mxGeometry y="52" width="240" height="26" as="geometry" />
        </mxCell>
        <mxCell id="6d2HYx9BcsOa-inQmmDR-92" value="InsertShape(shape:Shape, index)" style="text;strokeColor=none;fillColor=none;align=left;verticalAlign=top;spacingLeft=4;spacingRight=4;overflow=hidden;rotatable=0;points=[[0,0.5],[1,0.5]];portConstraint=eastwest;whiteSpace=wrap;html=1;fontStyle=2" vertex="1" parent="6d2HYx9BcsOa-inQmmDR-89">
          <mxGeometry y="78" width="240" height="26" as="geometry" />
        </mxCell>
        <mxCell id="6d2HYx9BcsOa-inQmmDR-93" value="RemoveShapeAtIndex(index:size_t)" style="text;strokeColor=none;fillColor=none;align=left;verticalAlign=top;spacingLeft=4;spacingRight=4;overflow=hidden;rotatable=0;points=[[0,0.5],[1,0.5]];portConstraint=eastwest;whiteSpace=wrap;html=1;fontStyle=2" vertex="1" parent="6d2HYx9BcsOa-inQmmDR-89">
          <mxGeometry y="104" width="240" height="26" as="geometry" />
        </mxCell>
        <mxCell id="6d2HYx9BcsOa-inQmmDR-95" value="IShape" style="swimlane;fontStyle=3;align=center;verticalAlign=top;childLayout=stackLayout;horizontal=1;startSize=26;horizontalStack=0;resizeParent=1;resizeParentMax=0;resizeLast=0;collapsible=1;marginBottom=0;whiteSpace=wrap;html=1;fillColor=#dae8fc;strokeColor=#6c8ebf;" vertex="1" parent="1">
          <mxGeometry x="1810" y="1358" width="180" height="78" as="geometry" />
        </mxCell>
        <mxCell id="6d2HYx9BcsOa-inQmmDR-101" value="GetGroup():IGroup*" style="text;strokeColor=none;fillColor=none;align=left;verticalAlign=top;spacingLeft=4;spacingRight=4;overflow=hidden;rotatable=0;points=[[0,0.5],[1,0.5]];portConstraint=eastwest;whiteSpace=wrap;html=1;fontStyle=2" vertex="1" parent="6d2HYx9BcsOa-inQmmDR-95">
          <mxGeometry y="26" width="180" height="26" as="geometry" />
        </mxCell>
        <mxCell id="6d2HYx9BcsOa-inQmmDR-100" value="..." style="text;strokeColor=none;fillColor=none;align=left;verticalAlign=top;spacingLeft=4;spacingRight=4;overflow=hidden;rotatable=0;points=[[0,0.5],[1,0.5]];portConstraint=eastwest;whiteSpace=wrap;html=1;" vertex="1" parent="6d2HYx9BcsOa-inQmmDR-95">
          <mxGeometry y="52" width="180" height="26" as="geometry" />
        </mxCell>
        <mxCell id="6d2HYx9BcsOa-inQmmDR-102" value="" style="endArrow=block;endSize=16;endFill=0;html=1;rounded=0;" edge="1" parent="1" source="6d2HYx9BcsOa-inQmmDR-89" target="6d2HYx9BcsOa-inQmmDR-95">
          <mxGeometry width="160" relative="1" as="geometry">
            <mxPoint x="1950" y="1340" as="sourcePoint" />
            <mxPoint x="2110" y="1340" as="targetPoint" />
          </mxGeometry>
        </mxCell>
        <mxCell id="6d2HYx9BcsOa-inQmmDR-103" value="" style="endArrow=block;dashed=1;endFill=0;endSize=12;html=1;rounded=0;" edge="1" parent="1" source="6d2HYx9BcsOa-inQmmDR-67" target="6d2HYx9BcsOa-inQmmDR-89">
          <mxGeometry width="160" relative="1" as="geometry">
            <mxPoint x="2030" y="1650" as="sourcePoint" />
            <mxPoint x="2190" y="1650" as="targetPoint" />
          </mxGeometry>
        </mxCell>
        <mxCell id="6d2HYx9BcsOa-inQmmDR-104" value="" style="endArrow=block;dashed=1;endFill=0;endSize=12;html=1;rounded=0;" edge="1" parent="1" source="6d2HYx9BcsOa-inQmmDR-61" target="6d2HYx9BcsOa-inQmmDR-95">
          <mxGeometry width="160" relative="1" as="geometry">
            <mxPoint x="2030" y="1650" as="sourcePoint" />
            <mxPoint x="2190" y="1650" as="targetPoint" />
          </mxGeometry>
        </mxCell>
        <mxCell id="6d2HYx9BcsOa-inQmmDR-106" value="return this;" style="shape=note;whiteSpace=wrap;html=1;backgroundOutline=1;darkOpacity=0.05;fillColor=#ffff88;strokeColor=#36393d;fontFamily=Consolas;size=15;align=left;spacingLeft=2;" vertex="1" parent="1">
          <mxGeometry x="2255" y="1733.5" width="110" height="51" as="geometry" />
        </mxCell>
        <mxCell id="6d2HYx9BcsOa-inQmmDR-107" style="edgeStyle=orthogonalEdgeStyle;rounded=0;orthogonalLoop=1;jettySize=auto;html=1;" edge="1" parent="1" source="6d2HYx9BcsOa-inQmmDR-105" target="6d2HYx9BcsOa-inQmmDR-106">
          <mxGeometry relative="1" as="geometry" />
        </mxCell>
        <mxCell id="6d2HYx9BcsOa-inQmmDR-108" value="" style="endArrow=open;endSize=12;dashed=1;html=1;rounded=0;edgeStyle=orthogonalEdgeStyle;" edge="1" parent="1" source="6d2HYx9BcsOa-inQmmDR-95" target="6d2HYx9BcsOa-inQmmDR-89">
          <mxGeometry width="160" relative="1" as="geometry">
            <mxPoint x="2080" y="1460" as="sourcePoint" />
            <mxPoint x="2240" y="1460" as="targetPoint" />
            <Array as="points">
              <mxPoint x="2100" y="1397" />
            </Array>
          </mxGeometry>
        </mxCell>
      </root>
    </mxGraphModel>
  </diagram>
</mxfile>
